<svg width="47" height="42" viewBox="0 0 47 42" fill="none" xmlns="http://www.w3.org/2000/svg">
<path d="M23.5 31.5L31.3333 24.5L28.5917 22.05L25.4583 24.85V17.5H21.5417V24.85L18.4083 22.05L15.6667 24.5L23.5 31.5ZM9.79167 14V33.25H37.2083V14H9.79167ZM9.79167 36.75C8.71458 36.75 7.78438 36.4146 7.00104 35.7437C6.25035 35.0437 5.875 34.2125 5.875 33.25V11.4188C5.875 11.0104 5.94028 10.6167 6.07083 10.2375C6.23403 9.85833 6.4625 9.50833 6.75625 9.1875L9.20417 6.51875C9.5632 6.11042 10.0038 5.80417 10.526 5.6C11.0809 5.36667 11.6521 5.25 12.2396 5.25H34.7604C35.3479 5.25 35.9028 5.36667 36.425 5.6C36.9799 5.80417 37.4368 6.11042 37.7958 6.51875L40.2438 9.1875C40.5375 9.50833 40.7497 9.85833 40.8802 10.2375C41.0434 10.6167 41.125 11.0104 41.125 11.4188V33.25C41.125 34.2125 40.7333 35.0437 39.95 35.7437C39.1993 36.4146 38.2854 36.75 37.2083 36.75H9.79167ZM10.575 10.5H36.425L34.7604 8.75H12.2396L10.575 10.5Z" fill="#1D1B20"/>
</svg>
